<svg xmlns="http://www.w3.org/2000/svg" version="1.1" xmlns:xlink="http://www.w3.org/1999/xlink" xmlns:svgjs="http://svgjs.dev/svgjs" viewBox="0 0 800 800"><defs><linearGradient x1="50%" y1="0%" x2="50%" y2="100%" id="ssscribble-grad"><stop stop-color="hsl(206, 75%, 49%)" stop-opacity="1" offset="0%"></stop><stop stop-color="hsl(331, 90%, 56%)" stop-opacity="1" offset="100%"></stop></linearGradient></defs><g fill="none" stroke-width="1.5" stroke="url(#ssscribble-grad)" stroke-linecap="round"><path d="M712.85 594.42C913.18 627.28 1075.8 643.47 1070.85 636.94 907.45 622.66 709.95 577 612.07 505.95 663.99 450.43 811.27 419.37 948.17 458.08 1003.8 577.57 944.14 759.24 809.53 926.79 646.62 979.61 516.62 881.75 443.15 693.68 424.95 588.14 447.35 673.41 482.77 908.74 530.91 1073.01 563.24 1000.19 573.17 761.12 580.42 646.05 566.9 803.74 534.04 1052.83 501.18 1070.75 450.54 837.18 381.31 647.31 309.41 715.59 217.3 942.69 112.21 1064.48 19.85 957.47 -56.66 726.06 -89.11 574.5 -66.28 602.84 16.53 757 136.37 898.25 227.91 941.99 248.61 858.93 158.76 710.37 -12.35 544.64 -189.1 424.82 -265.11 360.54 -101.91 343.27 45.82 363.06 -239.14 327.12 -298.58 294.26 -167.21 236.28 38.85 160.45 163.43 92.5 122.77 26.64 -31.34 -10.02 -190.26 -2.7 -238.7 62.98 -156.83 178.06 10.89 275.99 178 311.9 280.65 225.12 299.02 40.81 247.5 -152.31 169.05 -214.9 81.87 -97.59 26.45 104.34 8.91 187.3 16.94 41.47 50.31 -204.33 93.26 -285.34 143.51 -108.2 188.42 118.72 221.28 100.89 254.15 -148.17 273.4 -299.27 285.12 -171.57 304.14 80.18 330.55 171.75 379.47 31.6 453.95 -179.64 563.49 -235.48 701.31 -95.75 879.76 194.95 830.16 61.94 632.57 -74.16 584.91 -62.25 662.83 22.89 845.83 135.36 1024.04 263.35 1083.41 368.8 971.5 445.06 778.12 513.58 653.41 561.55 712.85 594.42Q712.85 594.42 712.85 594.42" opacity="0.27"></path><path d="M678.85 348.07C945.01 381.02 837.18 350.47 603.27 345.36 580.85 386.08 671.91 476.78 807.88 621.07 924.83 774.13 959.23 899.11 907.65 928.48 790.5 844.71 651.17 684.76 527.87 557.91 430.14 579.53 373.96 756.58 348.74 970.78 350.79 970.49 354.22 703.3 318.26 1018.83 287.75 1046.14 239.06 842.28 176.73 636.02 118.42 633.08 56.25 819.06 4.65 996.03 -23 1005.98 -17.07 838.5 33.63 634.4 109.9 524.32 205.42 563.74 282.57 690.37 294.16 828.61 223.59 890.11 74.86 861.83 -92.87 761.34 -211.3 631.33 -211.25 511.72 -93.92 402.3 77.15 326.24 187.08 275.67 148.56 235.2 -20.35 203.53 -205.14 173.01 -267.12 142.5 -160.64 114.59 29.76 97.5 177.82 90.52 193.02 111.07 85.54 167.59 -75.28 234.33 -184.22 314.09 -188.23 367.58 -90.34 348.85 63.19 243.56 209.82 65.34 315.33 -101.29 354.76 -176.92 342 -98.64 288.71 73.67 227.6 213.81 179.8 181.53 128.39 -119.46 144.07 63.26 185.64 134.89 216.16 -95.21 253.62 -259.88 301.66 -185.39 355.31 46.37 428.37 203.41 523.89 156.3 624.57 -35.52 735.93 -185.23 836.25 -175.11 896.03 -16.52 900.41 179.6 834.89 303.39 728.25 314.05 610.89 232.89 544.78 126.87 580.56 29.59 716.87 -10.87 900.07 1.27 1029.92 51.75 1032.08 122.24 895.79 189.67 717.17 262.84 616.87 317.55 678.85 348.07Q678.85 348.07 678.85 348.07" opacity="0.10"></path><path d="M644.85 173.73C814.01 201.89 973.47 228.72 1026.47 261 947.98 302.2 784.06 364.39 624.98 457.2 540.39 564.67 560.25 691.87 655.02 809.96 782.59 875.71 878.59 867.03 912.2 769.98 881.48 636.31 797.33 525.04 689.99 521.34 571.32 650.47 469.11 852.01 391.25 994.31 328.72 969.99 286.36 792.98 255.41 610 230.25 596.25 205.8 774.05 177.63 984.83 149.46 1019.98 118.92 847.26 90.96 637.33 68.78 572.25 59.91 695.35 73.63 883.15 102.67 989.14 158.49 928.9 233.76 757.09 297.69 573.78 341.4 481.1 335.2 498.95 264.67 601.98 135.28 719.92 -21.61 799.7 -145.7 830.1 -190.82 800.26 -126.88 735.38 11.55 645.01 159.43 556.56 227.05 484.67 163.18 412.67 -1.98 361.88 -171.14 333.71 -234.59 305.54 -151.8 301.32 18.14 320.19 177.74 338.96 240.53 376.17 188.53 417.74 55.36 433.81 -79.2 417.29 -152.11 343.49 -140.81 220.31 -49.8 61.94 80.33 -78.01 219.43 -132.81 327.45 -73.55 392.19 80.41 416.58 222.91 409.16 257.92 388.74 131.32 342.03 -146.69 314.5 120.44 347.06 168.89 375.23 -41.86 421.43 -214 484.14 -189.43 546.81 4.39 623.65 197.46 706.37 242.45 802.5 32.67 793.31 -49.94 657.33 192.98 564.11 326.95 506.49 376.07 524.52 353.73 626.76 279.05 786.59 198.24 940.4 139.57 1013.05 95.58 966.29 84.63 817.56 96.54 658.49 117.39 581.4 145.56 644.85 173.73Q644.85 173.73 644.85 173.73" opacity="0.87"></path><path d="M610.85 313.19C764.34 339.01 917.42 384.92 990.65 450.24 953.71 516.4 825.43 600.13 669.28 691.15 544.59 764.47 496.85 815.17 527.49 817.95 618.91 770.02 725.46 670.96 809.49 551.01 858.33 474.17 855.44 477.63 811.95 587.94 737.16 761.65 649.91 920.57 566.23 966.42 480.96 868.49 410.63 685.39 356.76 551.46 305.42 580.76 267.26 759.67 241.44 950.83 215.62 992.23 203.37 851.01 206.01 649.05 211.19 536.2 234.55 587.04 275.08 745.01 314.01 902.71 358.74 950.3 393.73 870.86 397.43 708 363.26 546.44 280.57 448.1 162.7 431.98 25.54 485.4 -92.75 566.89 -150.27 658.63 -125.69 720.94 -19.92 746.84 117.29 748.27 230.87 724.43 257.84 690.37 174.66 649.02 16.34 612.15 -137.14 586.33 -200.99 560.5 -140.24 546.96 5.79 539.62 165.48 524.98 263.65 501.86 266.92 455.7 181.86 385.07 57.44 280.25 -50.9 148.72 -112.4 27.43 -102.48 -63.07 -34.2 -80.82 75.24 -16.34 194.36 114.59 299.41 250.57 387.73 303.16 446.31 232.45 481.03 55.84 498.3 -121.06 505.99 -186.64 514.13 -83.8 518.2 108.19 531.28 244.21 557.09 202.88 582.91 11.74 620.25 -161.96 664.88 -181.35 705.44 -37.48 744.71 160.31 772.18 277.2 782.22 250.3 766.15 114.54 717.63 -32.28 652.37 -115.73 570.32 -88.58 494.71 22.09 460.27 175.88 480.96 312 569.35 399.73 704.58 436.75 852.16 428.57 956.14 399.99 971.79 353.72 888.33 316.96 738.59 299.49 602.52 282.87 547.01 287.37 610.85 313.19Q610.85 313.19 610.85 313.19" opacity="0.74"></path><path d="M576.89 573.05C714.77 596.52 858.71 631.69 945.76 673.11 945.83 708.79 859.09 738.87 724.82 750.13 586.55 739.46 490.25 695.75 455.6 618.16 483.51 534.92 553.74 455.39 637.26 416.2 721.42 447.84 778.39 554.14 802.25 712.66 799 857.89 769.17 931.4 724.85 886.3 668.27 747.58 611.77 586.31 563.07 506.71 512.68 570.89 474.43 745.41 450.96 916.84 427.49 962.84 419.91 852.43 426.02 668.3 430.46 525.32 444.26 507.06 460.16 606.77 463.8 764.1 454.98 882.76 422.06 908.2 362.02 835.83 271.35 700.22 156.43 557.75 -6.87 412.01 -60.42 439.6 98.26 516.41 215.32 567.81 288.71 598.64 279.58 608.33 183.46 614.09 34.77 603.98 -103.1 580.51 -166.29 557.04 -125.57 521.31 -5.47 471.28 144.22 417.33 263.33 343.8 313.68 251.73 285.2 161.26 198.9 68.56 93.23 -4.13 -5.57 -33.73 -61.79 -8.67 -67.37 76.91 -27.29 188.62 47.25 296.41 136.14 344.34 234.45 294.46 322.59 154.75 394.14 -19.78 457.64 -136.69 505.16 -131.8 540.81 2.11 572.75 177.19 599.27 282.84 622.74 236.84 655.87 -19.46 684.07 16.5 658.85 259.74 627.99 322.04 578.5 269.58 516.36 148.79 463.65 14.71 422.78 -63.75 413.45 -64.62 449.79 5.32 533.82 118.54 657.06 237.96 787.17 351.73 894.53 434.1 940.24 485.44 907.12 514.86 801.39 527.47 660.75 536.06 549.69 538.9 513.69 549.57 576.85 573.04Q576.89 573.05 576.89 573.05" opacity="0.11"></path><path d="M542.38 592.77C664.56 613.89 797.05 624.43 891.88 622.03 922.64 615.97 878.42 591.48 779.31 547.23 652.65 500.68 535.3 443.31 452.94 390.34 415.74 366.93 424.78 380.92 465.98 447.62 531.77 557.69 599.02 695.92 654.19 822.65 700.75 889.77 725.54 871.51 731.05 765.31 725.62 622.2 708.41 503 685.82 476.33 660.02 565.81 635.04 730.98 613.92 882.73 592.79 931.64 576.52 850.35 562.49 691.58 545.24 537.02 524.02 463.41 492.84 493.5 450.72 606.88 391.13 741.1 312.02 837.81 224.29 869.58 126.72 824.77 33.24 728.61 -35.64 603.55 -69.73 486.72 -54.53 398.03 5.83 337.65 104.23 310.62 215.4 305.01 299.03 316.87 331.22 331.61 292.31 339.03 189.33 349.25 52.56 345.33 -69.61 324.21 -130.63 303.09 -107.05 265.76 -13.14 215.71 118.58 168.45 243.69 115.28 326.74 66.8 350.74 35.8 316.55 28.02 244.23 55.83 149.87 111.94 65.25 198.45 7.84 295.82 -20.82 364.31 -13.44 384.09 21.07 330.36 77.14 211.66 142.99 58.5 207.94 -70.37 276.65 -115.97 335.95 -54.43 382.81 91.96 429.03 242.59 463.09 319.63 484.21 270.78 508.93 38.6 488.69 -22.83 446.15 201.37 417.81 323.07 386.76 360.29 363.24 315.18 361.28 210.45 384.23 97.27 440.59 14.88 525.68 -24.13 635.35 -7.79 751.71 48.16 846.03 133.69 899.17 225.85 890.65 309.01 823.09 389.87 709.99 452.79 586.42 498.69 500.66 540.93 481.36 571.64 542.38 592.77Q542.38 592.77 542.38 592.77" opacity="0.88"></path><path d="M508.88 345.11C615.96 363.88 734.96 366.84 830.97 356.3 883.36 347.54 876.69 329.8 818.02 310.58 721.73 303.98 611.74 310.72 510.86 342.45 430.43 401.37 383.06 491.08 367.63 604.38 381.32 715.23 413.7 807.77 453.1 852.46 500.62 833.52 541.19 750.36 570 624.87 596.2 508.45 609.17 441.41 609.97 460.51 609.01 565.06 598.7 716.65 579.92 848.89 561.14 898.96 534.78 844.12 500.33 715.52 464.12 566.57 416.99 458.32 358.25 424.81 296.9 470.85 225.41 569.73 148.94 680.12 80.6 775.21 21.26 821.97 -17.03 816.32 -26.21 764.94 -1.11 683.21 59.76 592.2 141.1 495.98 234.24 414.06 316.77 350.95 361.68 297.85 357.66 260.62 298.02 233.93 194.76 211.2 71.96 191.86 -35.11 173.08 -93.69 154.31 -85.41 136.98 -17.45 124.29 90.53 115.57 208.6 118.64 308.06 139.2 371.85 169.76 389.55 220.76 366.49 288.04 309.17 350.11 237.44 404.88 168.03 431.65 103.77 412.69 60.71 343.67 40.5 229.03 37.32 99.08 52.38 -16.62 78.57 -76.43 113.55 -56.69 150.75 40.87 184.62 182.57 220.3 303.93 248.74 354.96 267.52 304.89 286.3 172.65 294.54 24.86 294.27 -72.43 295.82 -84.29 292.77 -6.56 290.33 123.61 296.68 262.86 312.54 362.87 344.65 401.36 393.78 376.22 463.79 305.95 552.67 219.71 646.68 131.02 740.69 68.26 817.57 38.29 860.19 35.49 859.35 59.69 809.33 98.82 723.65 150.58 616.27 202.48 515.53 246.66 454.8 292.61 450.29 326.32 508.84 345.1Q508.88 345.11 508.88 345.11" opacity="0.07"></path><path d="M474.84 173.5C675.18 206.36 832.1 240.79 832.36 308.59 691.71 412.39 507.11 579.78 376.5 752.08 325.84 759.82 407.37 485.5 380.68 814.88 347.82 832.71 272.87 602.26 172.66 409.14 89.17 428.86 26.77 600.18 39.92 737.81 127.46 773.19 277.2 692.43 393.77 582.94 369.42 455.78 199.18 369.34 -1.15 336.48 -60.59 303.62 69.41 327.45 265.95 397.66 406.1 450.2 418.72 479.67 346.75 401.23 230.15 220.53 148.01 14.35 120.27 -29.44 115.76 139.58 140.43 356.71 173.29 338.88 206.15 89.8 244.09 -57.47 305.55 51.79 390.24 291.61 523.66 433.87 683.33 415.49 798.37 286.26 820.61 170.16 704.54 123.31 532.09 112.46 415.4 140.64 474.84 173.5Q474.84 173.5 474.84 173.5" opacity="0.44"></path><path d="M440.89 315.96C610.06 344.13 763.62 417.08 814.81 527.73 754.04 631.4 617.45 733 477.31 763.43 356.41 695.35 286.23 534.78 252.42 386.29 239.38 391.67 227.44 570.07 199.27 780.84 171.11 815.99 129.38 645.91 93.61 443.02 78.61 350.71 104.83 411.15 188.81 533.49 292.03 660.66 398.75 714.5 438.87 706.4 367.04 665.52 202.06 616.19 32.89 588.02 -30.6 559.85 51.64 555.52 211.02 547.59 370.9 506.88 459.25 409.08 470.35 245 419.73 85.74 353.79 -4.57 309.92 67.05 267.02 249.28 259.33 407.97 287.49 372.89 315.65 162.13 377 -4.89 468.7 10.34 561.39 179.46 671.29 369.92 758.84 474.93 784.68 481.41 726.22 423.77 587 368.92 448.25 307.08 377.4 287.79 440.85 315.95Q440.89 315.96 440.89 315.96" opacity="0.46"></path><path d="M406.89 574.96C544.77 598.43 683.17 643.43 763.31 688.82 771.69 711.79 707.65 694.22 610.23 612.2 494.69 501.12 395.86 380.4 326.31 329.65 265.66 401.73 225.8 575.42 202.33 746.84 178.86 792.84 174 684.06 193.97 511.01 222.84 362.64 285.04 309.04 369.82 337.17 436.47 423.12 475.61 507.55 450.03 556.95 352.68 597.22 204.77 602.16 66.89 578.69 3.7 555.22 44.74 505.55 156.28 424.61 298.06 334.54 418.01 213.48 491 96.76 521.49 37.86 518.54 66.55 507.97 197.69 486.31 353.54 481.64 452.82 505.11 406.89 528.57 235.48 577.96 71.27 640.29 16.37 691.54 84.3 731.14 229.92 731.42 371.77 689.21 484.57 594.16 538.77 469.59 556.47 375.25 551.76 343.69 551.48 406.85 574.95Q406.89 574.96 406.89 574.96" opacity="0.43"></path><path d="M372.66 591.24C479.65 610.02 593.89 608.84 680.68 582.26 732.55 547.32 734.5 479.89 700.12 392.69 639.31 326.61 570.28 292.49 511.09 326.41 449.52 430.38 406.23 580.53 387.45 712.79 368.67 762.91 376.18 708.58 405.21 589.66 431.86 448.05 471.59 336.73 507.78 276.59 517.55 261.26 495.69 277.69 430.05 298.35 329.5 328.99 207.65 340.25 100.66 321.47 42.24 302.69 51.67 255.66 114.8 192.48 213.84 139.28 320.5 93.54 410.65 84.26 486.95 119.79 537.49 211.19 568.4 339.03 590.27 444.19 607.28 490.91 626.06 440.79 644.84 308.53 663.61 165.99 674.28 75.78 675.91 55.63 654.68 109.67 602.99 200.36 537.45 312.17 450.71 408.91 365.42 476.39 316.06 535.51 314.24 572.46 372.66 591.24Q372.66 591.24 372.66 591.24" opacity="0.57"></path><path d="M338.89 342.3C508.06 370.47 649.69 310.95 692 249.98 671.07 288.85 611.91 468.07 583.75 678.84 555.58 713.99 563.73 549.08 547.74 378.95 468.52 250.69 304.06 201.36 134.89 173.19 71.4 145.02 152.79 143.35 278.65 234.7 418.67 367.91 511.02 509.99 539.19 474.84 567.35 264.07 526 107.68 422.91 105.73 333.96 203.62 275.4 314.13 338.89 342.3Q338.89 342.3 338.89 342.3" opacity="0.15"></path><path d="M304.85 173.32C535.67 210.88 648.96 359.64 611.41 644.83 573.85 639.62 399.67 376.98 168.85 339.42 117.66 301.87 286.81 503.62 324.37 508.83 361.92 223.64 253.66 135.77 304.85 173.32Q304.85 173.32 304.85 173.32" opacity="0.49"></path></g></svg>